<?xml version="1.0" encoding="utf-8"?>
<!-- Generator: Adobe Illustrator 16.0.5, SVG Export Plug-In . SVG Version: 6.00 Build 0)  -->
<!DOCTYPE svg PUBLIC "-//W3C//DTD SVG 1.1//EN" "http://www.w3.org/Graphics/SVG/1.1/DTD/svg11.dtd">
<svg version="1.1" id="Layer_1" xmlns="http://www.w3.org/2000/svg" xmlns:xlink="http://www.w3.org/1999/xlink" x="0px" y="0px"
	 width="23px" height="23px" viewBox="0 0 23 23" enable-background="new 0 0 23 23" xml:space="preserve">
<g>
	<g>
		<path fill="#F8961D" d="M22.137,22.628c-0.125,0-0.25-0.049-0.347-0.144L0.516,1.209c-0.19-0.192-0.19-0.501,0-0.693
			c0.192-0.192,0.501-0.192,0.693,0l21.273,21.275c0.191,0.191,0.191,0.502,0,0.693C22.387,22.579,22.264,22.628,22.137,22.628z"/>
	</g>
	<g>
		<path fill="#F8961D" d="M0.862,22.628c-0.124,0-0.25-0.049-0.346-0.144c-0.19-0.191-0.19-0.502,0-0.693L21.79,0.516
			c0.192-0.192,0.502-0.192,0.692,0c0.191,0.191,0.191,0.501,0,0.693L1.209,22.484C1.114,22.579,0.988,22.628,0.862,22.628z"/>
	</g>
	<g>
		<g>
			<path fill="#F8961D" d="M7.227,21.223H1.415V1.064h5.812c0.4,0,0.723,0.324,0.723,0.722c0,0.399-0.323,0.724-0.723,0.724H2.859
				v17.268h4.367c0.4,0,0.723,0.324,0.723,0.723C7.95,20.898,7.627,21.223,7.227,21.223z"/>
		</g>
		<g>
			<path fill="#F8961D" d="M21.57,21.223h-5.812c-0.399,0-0.725-0.324-0.725-0.724c0-0.397,0.323-0.724,0.725-0.724h4.367V2.509
				h-4.367c-0.399,0-0.725-0.324-0.725-0.724c0-0.397,0.323-0.722,0.725-0.722h5.812V21.223z"/>
		</g>
	</g>
</g>
</svg>
