<?xml version="1.0" encoding="utf-8"?>
<!-- Generator: Adobe Illustrator 16.0.5, SVG Export Plug-In . SVG Version: 6.00 Build 0)  -->
<!DOCTYPE svg PUBLIC "-//W3C//DTD SVG 1.1//EN" "http://www.w3.org/Graphics/SVG/1.1/DTD/svg11.dtd">
<svg version="1.1" id="Layer_1" xmlns="http://www.w3.org/2000/svg" xmlns:xlink="http://www.w3.org/1999/xlink" x="0px" y="0px"
	 width="448px" height="369px" viewBox="0 0 448 369" enable-background="new 0 0 448 369" xml:space="preserve">
<g>
	<g opacity="0.3">
		<linearGradient id="SVGID_1_" gradientUnits="userSpaceOnUse" x1="89.0986" y1="418.8682" x2="358.8458" y2="-48.3477">
			<stop  offset="0" style="stop-color:#00567F"/>
			<stop  offset="0.9737" style="stop-color:#DB00E9"/>
		</linearGradient>
		<path fill="url(#SVGID_1_)" d="M405.312,368.193H1.327V44.132L43.522,1.935h402.416v325.629L405.312,368.193z"/>
	</g>
	<g opacity="0.4">
		<g>
			<g>
				<g>
					<rect x="34.876" y="331.206" fill="#0D93B2" width="386.997" height="0.622"/>
				</g>
				<g>
					<rect x="34.876" y="304.144" fill="#0D93B2" width="386.997" height="0.62"/>
				</g>
				<g>
					<rect x="34.876" y="277.083" fill="#0D93B2" width="386.997" height="0.62"/>
				</g>
				<g>
					<rect x="34.876" y="250.019" fill="#0D93B2" width="386.997" height="0.625"/>
				</g>
				<g>
					<rect x="34.876" y="222.957" fill="#0D93B2" width="386.997" height="0.622"/>
				</g>
				<g>
					<rect x="34.876" y="195.896" fill="#0D93B2" width="386.997" height="0.62"/>
				</g>
				<g>
					<rect x="34.876" y="168.83" fill="#0D93B2" width="386.997" height="0.623"/>
				</g>
				<g>
					<rect x="34.876" y="141.769" fill="#0D93B2" width="386.997" height="0.621"/>
				</g>
				<g>
					<rect x="34.876" y="114.706" fill="#0D93B2" width="386.997" height="0.622"/>
				</g>
				<g>
					<rect x="34.876" y="87.642" fill="#0D93B2" width="386.997" height="0.624"/>
				</g>
				<g>
					<rect x="34.876" y="60.578" fill="#0D93B2" width="386.997" height="0.626"/>
				</g>
				<g>
					<rect x="34.876" y="33.517" fill="#0D93B2" width="386.997" height="0.622"/>
				</g>
			</g>
			<g>
				<g>
					<rect x="52.155" y="33.825" fill="#0D93B2" width="0.624" height="314.347"/>
				</g>
				<g>
					<rect x="79.219" y="33.825" fill="#0D93B2" width="0.622" height="315.284"/>
				</g>
				<g>
					<rect x="106.282" y="33.825" fill="#0D93B2" width="0.622" height="315.284"/>
				</g>
				<g>
					<rect x="133.343" y="33.825" fill="#0D93B2" width="0.625" height="315.284"/>
				</g>
				<g>
					<rect x="160.407" y="33.825" fill="#0D93B2" width="0.622" height="315.284"/>
				</g>
				<g>
					<rect x="187.471" y="33.825" fill="#0D93B2" width="0.621" height="315.284"/>
				</g>
				<g>
					<rect x="214.534" y="33.825" fill="#0D93B2" width="0.619" height="315.284"/>
				</g>
				<g>
					<rect x="241.596" y="33.825" fill="#0D93B2" width="0.623" height="315.284"/>
				</g>
				<g>
					<rect x="268.656" y="33.825" fill="#0D93B2" width="0.625" height="315.284"/>
				</g>
				<g>
					<rect x="295.719" y="33.825" fill="#0D93B2" width="0.623" height="315.284"/>
				</g>
				<g>
					<rect x="322.785" y="33.825" fill="#0D93B2" width="0.619" height="315.284"/>
				</g>
				<g>
					<rect x="349.846" y="33.825" fill="#0D93B2" width="0.623" height="315.284"/>
				</g>
				<g>
					<rect x="376.91" y="33.825" fill="#0D93B2" width="0.621" height="315.284"/>
				</g>
				<g>
					<rect x="403.975" y="33.825" fill="#0D93B2" width="0.621" height="315.284"/>
				</g>
			</g>
			<g>
				<circle fill="#0D93B2" cx="52.467" cy="331.519" r="0.748"/>
				<circle fill="#0D93B2" cx="79.531" cy="331.519" r="0.748"/>
				<circle fill="#0D93B2" cx="106.594" cy="331.519" r="0.748"/>
				<circle fill="#0D93B2" cx="133.657" cy="331.519" r="0.748"/>
				<circle fill="#0D93B2" cx="160.72" cy="331.519" r="0.748"/>
				<circle fill="#0D93B2" cx="187.782" cy="331.519" r="0.747"/>
				<circle fill="#0D93B2" cx="214.845" cy="331.519" r="0.748"/>
				<circle fill="#0D93B2" cx="241.911" cy="331.519" r="0.747"/>
				<path fill="#0D93B2" d="M269.719,331.519c0,0.412-0.334,0.748-0.75,0.748c-0.412,0-0.744-0.336-0.744-0.748
					s0.332-0.746,0.744-0.746C269.385,330.772,269.719,331.106,269.719,331.519z"/>
				<path fill="#0D93B2" d="M296.781,331.519c0,0.412-0.332,0.748-0.748,0.748c-0.412,0-0.744-0.336-0.744-0.748
					s0.332-0.746,0.744-0.746C296.449,330.772,296.781,331.106,296.781,331.519z"/>
				<path fill="#0D93B2" d="M323.848,331.519c0,0.412-0.34,0.748-0.748,0.748c-0.414,0-0.748-0.336-0.748-0.748
					s0.334-0.746,0.748-0.746C323.508,330.772,323.848,331.106,323.848,331.519z"/>
				<circle fill="#0D93B2" cx="350.16" cy="331.519" r="0.748"/>
				<circle fill="#0D93B2" cx="377.222" cy="331.519" r="0.745"/>
				<path fill="#0D93B2" d="M405.033,331.519c0,0.412-0.332,0.748-0.748,0.748c-0.408,0-0.748-0.336-0.748-0.748
					s0.34-0.746,0.748-0.746C404.701,330.772,405.033,331.106,405.033,331.519z"/>
				<circle fill="#0D93B2" cx="52.467" cy="304.456" r="0.748"/>
				<circle fill="#0D93B2" cx="79.531" cy="304.456" r="0.748"/>
				<circle fill="#0D93B2" cx="106.594" cy="304.456" r="0.748"/>
				<circle fill="#0D93B2" cx="133.657" cy="304.456" r="0.748"/>
				<circle fill="#0D93B2" cx="160.72" cy="304.456" r="0.748"/>
				<circle fill="#0D93B2" cx="187.782" cy="304.456" r="0.747"/>
				<circle fill="#0D93B2" cx="214.845" cy="304.456" r="0.748"/>
				<circle fill="#0D93B2" cx="241.911" cy="304.456" r="0.747"/>
				<path fill="#0D93B2" d="M269.719,304.456c0,0.412-0.334,0.746-0.75,0.746c-0.412,0-0.744-0.334-0.744-0.746
					s0.332-0.748,0.744-0.748C269.385,303.708,269.719,304.044,269.719,304.456z"/>
				<path fill="#0D93B2" d="M296.781,304.456c0,0.412-0.332,0.746-0.748,0.746c-0.412,0-0.744-0.334-0.744-0.746
					s0.332-0.748,0.744-0.748C296.449,303.708,296.781,304.044,296.781,304.456z"/>
				<path fill="#0D93B2" d="M323.848,304.456c0,0.412-0.34,0.746-0.748,0.746c-0.414,0-0.748-0.334-0.748-0.746
					s0.334-0.748,0.748-0.748C323.508,303.708,323.848,304.044,323.848,304.456z"/>
				<circle fill="#0D93B2" cx="350.16" cy="304.456" r="0.748"/>
				<circle fill="#0D93B2" cx="377.222" cy="304.456" r="0.745"/>
				<path fill="#0D93B2" d="M405.033,304.456c0,0.412-0.332,0.746-0.748,0.746c-0.408,0-0.748-0.334-0.748-0.746
					s0.34-0.748,0.748-0.748C404.701,303.708,405.033,304.044,405.033,304.456z"/>
				<circle fill="#0D93B2" cx="52.467" cy="277.393" r="0.748"/>
				<circle fill="#0D93B2" cx="79.531" cy="277.393" r="0.748"/>
				<circle fill="#0D93B2" cx="106.594" cy="277.393" r="0.748"/>
				<circle fill="#0D93B2" cx="133.657" cy="277.393" r="0.748"/>
				<circle fill="#0D93B2" cx="160.72" cy="277.393" r="0.748"/>
				<circle fill="#0D93B2" cx="187.782" cy="277.393" r="0.747"/>
				<circle fill="#0D93B2" cx="214.845" cy="277.393" r="0.748"/>
				<circle fill="#0D93B2" cx="241.911" cy="277.393" r="0.747"/>
				<path fill="#0D93B2" d="M269.719,277.393c0,0.411-0.334,0.748-0.75,0.748c-0.412,0-0.744-0.337-0.744-0.748
					c0-0.413,0.332-0.748,0.744-0.748C269.385,276.645,269.719,276.979,269.719,277.393z"/>
				<path fill="#0D93B2" d="M296.781,277.393c0,0.411-0.332,0.748-0.748,0.748c-0.412,0-0.744-0.337-0.744-0.748
					c0-0.413,0.332-0.748,0.744-0.748C296.449,276.645,296.781,276.979,296.781,277.393z"/>
				<path fill="#0D93B2" d="M323.848,277.393c0,0.411-0.34,0.748-0.748,0.748c-0.414,0-0.748-0.337-0.748-0.748
					c0-0.413,0.334-0.748,0.748-0.748C323.508,276.645,323.848,276.979,323.848,277.393z"/>
				<circle fill="#0D93B2" cx="350.16" cy="277.393" r="0.748"/>
				<circle fill="#0D93B2" cx="377.222" cy="277.393" r="0.745"/>
				<path fill="#0D93B2" d="M405.033,277.393c0,0.411-0.332,0.748-0.748,0.748c-0.408,0-0.748-0.337-0.748-0.748
					c0-0.413,0.34-0.748,0.748-0.748C404.701,276.645,405.033,276.979,405.033,277.393z"/>
				<circle fill="#0D93B2" cx="52.467" cy="250.328" r="0.748"/>
				<circle fill="#0D93B2" cx="79.531" cy="250.328" r="0.748"/>
				<path fill="#0D93B2" d="M107.342,250.328c0,0.413-0.335,0.751-0.75,0.751c-0.412,0-0.747-0.338-0.747-0.751
					c0-0.414,0.335-0.746,0.747-0.746C107.006,249.582,107.342,249.914,107.342,250.328z"/>
				<path fill="#0D93B2" d="M134.405,250.328c0,0.413-0.336,0.751-0.75,0.751c-0.414,0-0.747-0.338-0.747-0.751
					c0-0.414,0.333-0.746,0.747-0.746C134.069,249.582,134.405,249.914,134.405,250.328z"/>
				<path fill="#0D93B2" d="M161.469,250.328c0,0.413-0.338,0.751-0.75,0.751c-0.414,0-0.747-0.338-0.747-0.751
					c0-0.414,0.333-0.746,0.747-0.746C161.13,249.582,161.469,249.914,161.469,250.328z"/>
				<path fill="#0D93B2" d="M188.53,250.328c0,0.413-0.335,0.751-0.75,0.751c-0.411,0-0.745-0.338-0.745-0.751
					c0-0.414,0.334-0.746,0.745-0.746C188.194,249.582,188.53,249.914,188.53,250.328z"/>
				<circle fill="#0D93B2" cx="214.845" cy="250.328" r="0.748"/>
				<circle fill="#0D93B2" cx="241.911" cy="250.328" r="0.747"/>
				<path fill="#0D93B2" d="M269.719,250.328c0,0.413-0.334,0.751-0.75,0.751c-0.412,0-0.744-0.338-0.744-0.751
					c0-0.414,0.332-0.746,0.744-0.746C269.385,249.582,269.719,249.914,269.719,250.328z"/>
				<path fill="#0D93B2" d="M296.781,250.328c0,0.413-0.332,0.751-0.748,0.751c-0.412,0-0.744-0.338-0.744-0.751
					c0-0.414,0.332-0.746,0.744-0.746C296.449,249.582,296.781,249.914,296.781,250.328z"/>
				<path fill="#0D93B2" d="M323.848,250.328c0,0.413-0.34,0.751-0.748,0.751c-0.414,0-0.748-0.338-0.748-0.751
					c0-0.414,0.334-0.746,0.748-0.746C323.508,249.582,323.848,249.914,323.848,250.328z"/>
				<circle fill="#0D93B2" cx="350.16" cy="250.328" r="0.748"/>
				<ellipse fill="#0D93B2" cx="377.222" cy="250.328" rx="0.745" ry="0.751"/>
				<path fill="#0D93B2" d="M405.033,250.328c0,0.413-0.332,0.751-0.748,0.751c-0.408,0-0.748-0.338-0.748-0.751
					c0-0.414,0.34-0.746,0.748-0.746C404.701,249.582,405.033,249.914,405.033,250.328z"/>
				<circle fill="#0D93B2" cx="52.467" cy="223.267" r="0.748"/>
				<circle fill="#0D93B2" cx="79.531" cy="223.267" r="0.748"/>
				<circle fill="#0D93B2" cx="106.594" cy="223.267" r="0.748"/>
				<circle fill="#0D93B2" cx="133.657" cy="223.267" r="0.748"/>
				<circle fill="#0D93B2" cx="160.72" cy="223.267" r="0.748"/>
				<circle fill="#0D93B2" cx="187.782" cy="223.267" r="0.747"/>
				<circle fill="#0D93B2" cx="214.845" cy="223.267" r="0.748"/>
				<circle fill="#0D93B2" cx="241.911" cy="223.267" r="0.747"/>
				<path fill="#0D93B2" d="M269.719,223.267c0,0.414-0.334,0.746-0.75,0.746c-0.412,0-0.744-0.332-0.744-0.746
					c0-0.413,0.332-0.749,0.744-0.749C269.385,222.518,269.719,222.854,269.719,223.267z"/>
				<path fill="#0D93B2" d="M296.781,223.267c0,0.414-0.332,0.746-0.748,0.746c-0.412,0-0.744-0.332-0.744-0.746
					c0-0.413,0.332-0.749,0.744-0.749C296.449,222.518,296.781,222.854,296.781,223.267z"/>
				<path fill="#0D93B2" d="M323.848,223.267c0,0.414-0.34,0.746-0.748,0.746c-0.414,0-0.748-0.332-0.748-0.746
					c0-0.413,0.334-0.749,0.748-0.749C323.508,222.518,323.848,222.854,323.848,223.267z"/>
				<circle fill="#0D93B2" cx="350.16" cy="223.267" r="0.748"/>
				<circle fill="#0D93B2" cx="377.222" cy="223.267" r="0.745"/>
				<path fill="#0D93B2" d="M405.033,223.267c0,0.414-0.332,0.746-0.748,0.746c-0.408,0-0.748-0.332-0.748-0.746
					c0-0.413,0.34-0.749,0.748-0.749C404.701,222.518,405.033,222.854,405.033,223.267z"/>
				<circle fill="#0D93B2" cx="52.467" cy="196.204" r="0.748"/>
				<circle fill="#0D93B2" cx="79.531" cy="196.204" r="0.748"/>
				<circle fill="#0D93B2" cx="106.594" cy="196.204" r="0.748"/>
				<circle fill="#0D93B2" cx="133.657" cy="196.204" r="0.748"/>
				<circle fill="#0D93B2" cx="160.72" cy="196.204" r="0.748"/>
				<circle fill="#0D93B2" cx="187.782" cy="196.204" r="0.747"/>
				<circle fill="#0D93B2" cx="214.845" cy="196.204" r="0.748"/>
				<circle fill="#0D93B2" cx="241.911" cy="196.204" r="0.747"/>
				<path fill="#0D93B2" d="M269.719,196.204c0,0.412-0.334,0.745-0.75,0.745c-0.412,0-0.744-0.333-0.744-0.745
					c0-0.413,0.332-0.749,0.744-0.749C269.385,195.455,269.719,195.791,269.719,196.204z"/>
				<path fill="#0D93B2" d="M296.781,196.204c0,0.412-0.332,0.745-0.748,0.745c-0.412,0-0.744-0.333-0.744-0.745
					c0-0.413,0.332-0.749,0.744-0.749C296.449,195.455,296.781,195.791,296.781,196.204z"/>
				<path fill="#0D93B2" d="M323.848,196.204c0,0.412-0.34,0.745-0.748,0.745c-0.414,0-0.748-0.333-0.748-0.745
					c0-0.413,0.334-0.749,0.748-0.749C323.508,195.455,323.848,195.791,323.848,196.204z"/>
				<circle fill="#0D93B2" cx="350.16" cy="196.204" r="0.748"/>
				<circle fill="#0D93B2" cx="377.222" cy="196.204" r="0.745"/>
				<path fill="#0D93B2" d="M405.033,196.204c0,0.412-0.332,0.745-0.748,0.745c-0.408,0-0.748-0.333-0.748-0.745
					c0-0.413,0.34-0.749,0.748-0.749C404.701,195.455,405.033,195.791,405.033,196.204z"/>
				<circle fill="#0D93B2" cx="52.467" cy="169.139" r="0.748"/>
				<circle fill="#0D93B2" cx="79.531" cy="169.139" r="0.748"/>
				<path fill="#0D93B2" d="M107.342,169.139c0,0.415-0.335,0.75-0.75,0.75c-0.412,0-0.747-0.335-0.747-0.75
					c0-0.412,0.335-0.744,0.747-0.744C107.006,168.395,107.342,168.727,107.342,169.139z"/>
				<path fill="#0D93B2" d="M134.405,169.139c0,0.415-0.336,0.75-0.75,0.75c-0.414,0-0.747-0.335-0.747-0.75
					c0-0.412,0.333-0.744,0.747-0.744C134.069,168.395,134.405,168.727,134.405,169.139z"/>
				<path fill="#0D93B2" d="M161.469,169.139c0,0.415-0.338,0.75-0.75,0.75c-0.414,0-0.747-0.335-0.747-0.75
					c0-0.412,0.333-0.744,0.747-0.744C161.13,168.395,161.469,168.727,161.469,169.139z"/>
				<path fill="#0D93B2" d="M188.53,169.139c0,0.415-0.335,0.75-0.75,0.75c-0.411,0-0.745-0.335-0.745-0.75
					c0-0.412,0.334-0.744,0.745-0.744C188.194,168.395,188.53,168.727,188.53,169.139z"/>
				<path fill="#0D93B2" d="M215.593,169.139c0,0.415-0.335,0.75-0.749,0.75c-0.412,0-0.747-0.335-0.747-0.75
					c0-0.412,0.335-0.744,0.747-0.744C215.257,168.395,215.593,168.727,215.593,169.139z"/>
				<path fill="#0D93B2" d="M242.658,169.139c0,0.415-0.338,0.75-0.748,0.75c-0.412,0-0.746-0.335-0.746-0.75
					c0-0.412,0.334-0.744,0.746-0.744C242.32,168.395,242.658,168.727,242.658,169.139z"/>
				<path fill="#0D93B2" d="M269.719,169.139c0,0.415-0.334,0.75-0.75,0.75c-0.412,0-0.744-0.335-0.744-0.75
					c0-0.412,0.332-0.744,0.744-0.744C269.385,168.395,269.719,168.727,269.719,169.139z"/>
				<path fill="#0D93B2" d="M296.781,169.139c0,0.415-0.332,0.75-0.748,0.75c-0.412,0-0.744-0.335-0.744-0.75
					c0-0.412,0.332-0.744,0.744-0.744C296.449,168.395,296.781,168.727,296.781,169.139z"/>
				<path fill="#0D93B2" d="M323.848,169.139c0,0.415-0.34,0.75-0.748,0.75c-0.414,0-0.748-0.335-0.748-0.75
					c0-0.412,0.334-0.744,0.748-0.744C323.508,168.395,323.848,168.727,323.848,169.139z"/>
				<circle fill="#0D93B2" cx="350.16" cy="169.139" r="0.748"/>
				<circle fill="#0D93B2" cx="377.222" cy="169.139" r="0.745"/>
				<path fill="#0D93B2" d="M405.033,169.139c0,0.415-0.332,0.75-0.748,0.75c-0.408,0-0.748-0.335-0.748-0.75
					c0-0.412,0.34-0.744,0.748-0.744C404.701,168.395,405.033,168.727,405.033,169.139z"/>
				<circle fill="#0D93B2" cx="52.467" cy="142.078" r="0.748"/>
				<circle fill="#0D93B2" cx="79.531" cy="142.078" r="0.748"/>
				<circle fill="#0D93B2" cx="106.594" cy="142.078" r="0.748"/>
				<circle fill="#0D93B2" cx="133.657" cy="142.078" r="0.748"/>
				<circle fill="#0D93B2" cx="160.72" cy="142.078" r="0.748"/>
				<circle fill="#0D93B2" cx="187.782" cy="142.078" r="0.747"/>
				<circle fill="#0D93B2" cx="214.845" cy="142.078" r="0.748"/>
				<circle fill="#0D93B2" cx="241.911" cy="142.078" r="0.747"/>
				<path fill="#0D93B2" d="M269.719,142.078c0,0.413-0.334,0.747-0.75,0.747c-0.412,0-0.744-0.334-0.744-0.747
					c0-0.412,0.332-0.748,0.744-0.748C269.385,141.33,269.719,141.666,269.719,142.078z"/>
				<path fill="#0D93B2" d="M296.781,142.078c0,0.413-0.332,0.747-0.748,0.747c-0.412,0-0.744-0.334-0.744-0.747
					c0-0.412,0.332-0.748,0.744-0.748C296.449,141.33,296.781,141.666,296.781,142.078z"/>
				<path fill="#0D93B2" d="M323.848,142.078c0,0.413-0.34,0.747-0.748,0.747c-0.414,0-0.748-0.334-0.748-0.747
					c0-0.412,0.334-0.748,0.748-0.748C323.508,141.33,323.848,141.666,323.848,142.078z"/>
				<circle fill="#0D93B2" cx="350.16" cy="142.078" r="0.748"/>
				<circle fill="#0D93B2" cx="377.222" cy="142.078" r="0.745"/>
				<path fill="#0D93B2" d="M405.033,142.078c0,0.413-0.332,0.747-0.748,0.747c-0.408,0-0.748-0.334-0.748-0.747
					c0-0.412,0.34-0.748,0.748-0.748C404.701,141.33,405.033,141.666,405.033,142.078z"/>
				<path fill="#0D93B2" d="M53.215,115.016c0,0.411-0.335,0.746-0.747,0.746c-0.414,0-0.749-0.335-0.749-0.746
					c0-0.415,0.335-0.748,0.749-0.748C52.879,114.268,53.215,114.601,53.215,115.016z"/>
				<path fill="#0D93B2" d="M80.279,115.016c0,0.411-0.333,0.746-0.748,0.746c-0.414,0-0.749-0.335-0.749-0.746
					c0-0.415,0.335-0.748,0.749-0.748C79.945,114.268,80.279,114.601,80.279,115.016z"/>
				<path fill="#0D93B2" d="M107.342,115.016c0,0.411-0.335,0.746-0.75,0.746c-0.412,0-0.747-0.335-0.747-0.746
					c0-0.415,0.335-0.748,0.747-0.748C107.006,114.268,107.342,114.601,107.342,115.016z"/>
				<path fill="#0D93B2" d="M134.405,115.016c0,0.411-0.336,0.746-0.75,0.746c-0.414,0-0.747-0.335-0.747-0.746
					c0-0.415,0.333-0.748,0.747-0.748C134.069,114.268,134.405,114.601,134.405,115.016z"/>
				<path fill="#0D93B2" d="M161.469,115.016c0,0.411-0.338,0.746-0.75,0.746c-0.414,0-0.747-0.335-0.747-0.746
					c0-0.415,0.333-0.748,0.747-0.748C161.13,114.268,161.469,114.601,161.469,115.016z"/>
				<path fill="#0D93B2" d="M188.53,115.016c0,0.411-0.335,0.746-0.75,0.746c-0.411,0-0.745-0.335-0.745-0.746
					c0-0.415,0.334-0.748,0.745-0.748C188.194,114.268,188.53,114.601,188.53,115.016z"/>
				<path fill="#0D93B2" d="M215.593,115.016c0,0.411-0.335,0.746-0.749,0.746c-0.412,0-0.747-0.335-0.747-0.746
					c0-0.415,0.335-0.748,0.747-0.748C215.257,114.268,215.593,114.601,215.593,115.016z"/>
				<path fill="#0D93B2" d="M242.658,115.016c0,0.411-0.338,0.746-0.748,0.746c-0.412,0-0.746-0.335-0.746-0.746
					c0-0.415,0.334-0.748,0.746-0.748C242.32,114.268,242.658,114.601,242.658,115.016z"/>
				<path fill="#0D93B2" d="M269.719,115.016c0,0.411-0.334,0.746-0.75,0.746c-0.412,0-0.744-0.335-0.744-0.746
					c0-0.415,0.332-0.748,0.744-0.748C269.385,114.268,269.719,114.601,269.719,115.016z"/>
				<path fill="#0D93B2" d="M296.781,115.016c0,0.411-0.332,0.746-0.748,0.746c-0.412,0-0.744-0.335-0.744-0.746
					c0-0.415,0.332-0.748,0.744-0.748C296.449,114.268,296.781,114.601,296.781,115.016z"/>
				<path fill="#0D93B2" d="M323.848,115.016c0,0.411-0.34,0.746-0.748,0.746c-0.414,0-0.748-0.335-0.748-0.746
					c0-0.415,0.334-0.748,0.748-0.748C323.508,114.268,323.848,114.601,323.848,115.016z"/>
				<path fill="#0D93B2" d="M350.908,115.016c0,0.411-0.336,0.746-0.748,0.746s-0.748-0.335-0.748-0.746
					c0-0.415,0.336-0.748,0.748-0.748S350.908,114.601,350.908,115.016z"/>
				<path fill="#0D93B2" d="M377.967,115.016c0,0.411-0.33,0.746-0.744,0.746c-0.41,0-0.746-0.335-0.746-0.746
					c0-0.415,0.336-0.748,0.746-0.748C377.637,114.268,377.967,114.601,377.967,115.016z"/>
				<path fill="#0D93B2" d="M405.033,115.016c0,0.411-0.332,0.746-0.748,0.746c-0.408,0-0.748-0.335-0.748-0.746
					c0-0.415,0.34-0.748,0.748-0.748C404.701,114.268,405.033,114.601,405.033,115.016z"/>
				<circle fill="#0D93B2" cx="52.467" cy="87.95" r="0.748"/>
				<circle fill="#0D93B2" cx="79.531" cy="87.95" r="0.748"/>
				<circle fill="#0D93B2" cx="106.594" cy="87.95" r="0.748"/>
				<circle fill="#0D93B2" cx="133.657" cy="87.95" r="0.748"/>
				<circle fill="#0D93B2" cx="160.72" cy="87.95" r="0.748"/>
				<circle fill="#0D93B2" cx="187.782" cy="87.95" r="0.747"/>
				<circle fill="#0D93B2" cx="214.845" cy="87.95" r="0.748"/>
				<circle fill="#0D93B2" cx="241.911" cy="87.95" r="0.747"/>
				<path fill="#0D93B2" d="M269.719,87.95c0,0.413-0.334,0.749-0.75,0.749c-0.412,0-0.744-0.336-0.744-0.749
					c0-0.411,0.332-0.748,0.744-0.748C269.385,87.202,269.719,87.539,269.719,87.95z"/>
				<path fill="#0D93B2" d="M296.781,87.95c0,0.413-0.332,0.749-0.748,0.749c-0.412,0-0.744-0.336-0.744-0.749
					c0-0.411,0.332-0.748,0.744-0.748C296.449,87.202,296.781,87.539,296.781,87.95z"/>
				<path fill="#0D93B2" d="M323.848,87.95c0,0.413-0.34,0.749-0.748,0.749c-0.414,0-0.748-0.336-0.748-0.749
					c0-0.411,0.334-0.748,0.748-0.748C323.508,87.202,323.848,87.539,323.848,87.95z"/>
				<circle fill="#0D93B2" cx="350.16" cy="87.95" r="0.748"/>
				<circle fill="#0D93B2" cx="377.222" cy="87.95" r="0.745"/>
				<path fill="#0D93B2" d="M405.033,87.95c0,0.413-0.332,0.749-0.748,0.749c-0.408,0-0.748-0.336-0.748-0.749
					c0-0.411,0.34-0.748,0.748-0.748C404.701,87.202,405.033,87.539,405.033,87.95z"/>
				<circle fill="#0D93B2" cx="52.467" cy="60.888" r="0.748"/>
				<circle fill="#0D93B2" cx="79.531" cy="60.888" r="0.748"/>
				<circle fill="#0D93B2" cx="106.594" cy="60.888" r="0.748"/>
				<circle fill="#0D93B2" cx="133.657" cy="60.888" r="0.748"/>
				<circle fill="#0D93B2" cx="160.72" cy="60.888" r="0.748"/>
				<circle fill="#0D93B2" cx="187.782" cy="60.888" r="0.747"/>
				<circle fill="#0D93B2" cx="214.845" cy="60.888" r="0.748"/>
				<circle fill="#0D93B2" cx="241.911" cy="60.888" r="0.747"/>
				<path fill="#0D93B2" d="M269.719,60.888c0,0.414-0.334,0.747-0.75,0.747c-0.412,0-0.744-0.333-0.744-0.747
					c0-0.412,0.332-0.747,0.744-0.747C269.385,60.141,269.719,60.476,269.719,60.888z"/>
				<path fill="#0D93B2" d="M296.781,60.888c0,0.414-0.332,0.747-0.748,0.747c-0.412,0-0.744-0.333-0.744-0.747
					c0-0.412,0.332-0.747,0.744-0.747C296.449,60.141,296.781,60.476,296.781,60.888z"/>
				<path fill="#0D93B2" d="M323.848,60.888c0,0.414-0.34,0.747-0.748,0.747c-0.414,0-0.748-0.333-0.748-0.747
					c0-0.412,0.334-0.747,0.748-0.747C323.508,60.141,323.848,60.476,323.848,60.888z"/>
				<circle fill="#0D93B2" cx="350.16" cy="60.888" r="0.748"/>
				<circle fill="#0D93B2" cx="377.222" cy="60.888" r="0.745"/>
				<path fill="#0D93B2" d="M405.033,60.888c0,0.414-0.332,0.747-0.748,0.747c-0.408,0-0.748-0.333-0.748-0.747
					c0-0.412,0.34-0.747,0.748-0.747C404.701,60.141,405.033,60.476,405.033,60.888z"/>
				<circle fill="#0D93B2" cx="52.467" cy="33.825" r="0.748"/>
				<circle fill="#0D93B2" cx="79.531" cy="33.825" r="0.748"/>
				<circle fill="#0D93B2" cx="106.594" cy="33.825" r="0.748"/>
				<circle fill="#0D93B2" cx="133.657" cy="33.825" r="0.748"/>
				<circle fill="#0D93B2" cx="160.72" cy="33.825" r="0.748"/>
				<circle fill="#0D93B2" cx="187.782" cy="33.825" r="0.747"/>
				<circle fill="#0D93B2" cx="214.845" cy="33.825" r="0.748"/>
				<circle fill="#0D93B2" cx="241.911" cy="33.825" r="0.747"/>
				<path fill="#0D93B2" d="M269.719,33.825c0,0.413-0.334,0.749-0.75,0.749c-0.412,0-0.744-0.336-0.744-0.749
					c0-0.414,0.332-0.747,0.744-0.747C269.385,33.078,269.719,33.411,269.719,33.825z"/>
				<path fill="#0D93B2" d="M296.781,33.825c0,0.413-0.332,0.749-0.748,0.749c-0.412,0-0.744-0.336-0.744-0.749
					c0-0.414,0.332-0.747,0.744-0.747C296.449,33.078,296.781,33.411,296.781,33.825z"/>
				<path fill="#0D93B2" d="M323.848,33.825c0,0.413-0.34,0.749-0.748,0.749c-0.414,0-0.748-0.336-0.748-0.749
					c0-0.414,0.334-0.747,0.748-0.747C323.508,33.078,323.848,33.411,323.848,33.825z"/>
				<circle fill="#0D93B2" cx="350.16" cy="33.825" r="0.748"/>
				<circle fill="#0D93B2" cx="377.222" cy="33.825" r="0.745"/>
				<path fill="#0D93B2" d="M405.033,33.825c0,0.413-0.332,0.749-0.748,0.749c-0.408,0-0.748-0.336-0.748-0.749
					c0-0.414,0.34-0.747,0.748-0.747C404.701,33.078,405.033,33.411,405.033,33.825z"/>
			</g>
		</g>
		<g>
			<g>
				<path fill="#0D93B2" d="M35.173,329.123v-2.766c0-0.56,0.376-1.001,0.847-1.001c0.471,0,0.847,0.441,0.847,1.001v2.766
					c0,0.562-0.376,1.009-0.847,1.009C35.549,330.132,35.173,329.686,35.173,329.123z M36.502,325.798
					c-0.124-0.146-0.291-0.238-0.482-0.238c-0.375,0-0.668,0.352-0.668,0.798v2.766c0,0.137,0.034,0.26,0.084,0.371L36.502,325.798z
					 M36.689,329.123v-2.766c0-0.137-0.036-0.259-0.085-0.365l-1.072,3.686c0.123,0.155,0.297,0.247,0.488,0.247
					C36.389,329.925,36.689,329.575,36.689,329.123z"/>
				<path fill="#0D93B2" d="M37.455,329.123v-2.766c0-0.56,0.375-1.001,0.844-1.001c0.471,0,0.849,0.441,0.849,1.001v2.766
					c0,0.562-0.377,1.009-0.849,1.009C37.831,330.132,37.455,329.686,37.455,329.123z M38.783,325.798
					c-0.123-0.146-0.291-0.238-0.484-0.238c-0.374,0-0.664,0.352-0.664,0.798v2.766c0,0.137,0.032,0.26,0.081,0.371L38.783,325.798z
					 M38.968,329.123v-2.766c0-0.137-0.034-0.259-0.084-0.365l-1.07,3.686c0.123,0.155,0.296,0.247,0.486,0.247
					C38.671,329.925,38.968,329.575,38.968,329.123z"/>
				<path fill="#0D93B2" d="M39.736,329.123v-2.766c0-0.56,0.376-1.001,0.847-1.001s0.847,0.441,0.847,1.001v2.766
					c0,0.562-0.375,1.009-0.847,1.009S39.736,329.686,39.736,329.123z M41.064,325.798c-0.123-0.146-0.291-0.238-0.481-0.238
					c-0.375,0-0.668,0.352-0.668,0.798v2.766c0,0.137,0.034,0.26,0.084,0.371L41.064,325.798z M41.252,329.123v-2.766
					c0-0.137-0.036-0.259-0.085-0.365l-1.072,3.686c0.124,0.155,0.295,0.247,0.488,0.247
					C40.952,329.925,41.252,329.575,41.252,329.123z"/>
			</g>
			<g>
				<path fill="#0D93B2" d="M35.173,301.935v-2.769c0-0.558,0.376-1,0.847-1c0.471,0,0.847,0.442,0.847,1v2.769
					c0,0.564-0.376,1.006-0.847,1.006C35.549,302.94,35.173,302.499,35.173,301.935z M36.502,298.608
					c-0.124-0.146-0.291-0.235-0.482-0.235c-0.375,0-0.668,0.35-0.668,0.793v2.769c0,0.137,0.034,0.26,0.084,0.369L36.502,298.608z
					 M36.689,301.935v-2.769c0-0.131-0.036-0.257-0.085-0.364l-1.072,3.689c0.123,0.151,0.297,0.244,0.488,0.244
					C36.389,302.735,36.689,302.383,36.689,301.935z"/>
				<path fill="#0D93B2" d="M37.455,301.935v-2.769c0-0.558,0.375-1,0.844-1c0.471,0,0.849,0.442,0.849,1v2.769
					c0,0.564-0.377,1.006-0.849,1.006C37.831,302.94,37.455,302.499,37.455,301.935z M38.783,298.608
					c-0.123-0.146-0.291-0.235-0.484-0.235c-0.374,0-0.664,0.35-0.664,0.793v2.769c0,0.137,0.032,0.26,0.081,0.369L38.783,298.608z
					 M38.968,301.935v-2.769c0-0.131-0.034-0.257-0.084-0.364l-1.07,3.689c0.123,0.151,0.296,0.244,0.486,0.244
					C38.671,302.735,38.968,302.383,38.968,301.935z"/>
				<path fill="#0D93B2" d="M40.386,298.423v4.407c0,0.026-0.017,0.046-0.038,0.046h-0.106c-0.023,0-0.034-0.02-0.034-0.046v-4.395
					h-0.59c-0.023,0-0.034-0.021-0.034-0.044v-0.121c0-0.021,0.01-0.04,0.034-0.04h0.607
					C40.324,298.23,40.386,298.299,40.386,298.423z"/>
			</g>
			<g>
				<path fill="#0D93B2" d="M35.173,274.744v-2.768c0-0.557,0.376-0.999,0.847-0.999c0.471,0,0.847,0.442,0.847,0.999v2.768
					c0,0.564-0.376,1.01-0.847,1.01C35.549,275.754,35.173,275.309,35.173,274.744z M36.502,271.42
					c-0.124-0.144-0.291-0.238-0.482-0.238c-0.375,0-0.668,0.353-0.668,0.795v2.768c0,0.141,0.034,0.26,0.084,0.375L36.502,271.42z
					 M36.689,274.744v-2.768c0-0.131-0.036-0.256-0.085-0.363l-1.072,3.689c0.123,0.15,0.297,0.244,0.488,0.244
					C36.389,275.547,36.689,275.198,36.689,274.744z"/>
				<path fill="#0D93B2" d="M37.455,274.744v-2.768c0-0.557,0.375-0.999,0.844-0.999c0.471,0,0.849,0.442,0.849,0.999v2.768
					c0,0.564-0.377,1.01-0.849,1.01C37.831,275.754,37.455,275.309,37.455,274.744z M38.783,271.42
					c-0.123-0.144-0.291-0.238-0.484-0.238c-0.374,0-0.664,0.353-0.664,0.795v2.768c0,0.141,0.032,0.26,0.081,0.375L38.783,271.42z
					 M38.968,274.744v-2.768c0-0.131-0.034-0.256-0.084-0.363l-1.07,3.689c0.123,0.15,0.296,0.244,0.486,0.244
					C38.671,275.547,38.968,275.198,38.968,274.744z"/>
				<path fill="#0D93B2" d="M39.872,275.483h1.451c0.022,0,0.039,0.018,0.039,0.043v0.115c0,0.026-0.017,0.045-0.039,0.045h-1.542
					c-0.056,0-0.092-0.038-0.092-0.106v-0.086c0-1.426,1.492-2.248,1.492-3.475c0-0.499-0.274-0.838-0.667-0.832
					c-0.372,0-0.634,0.347-0.643,0.884c0,0.025-0.019,0.046-0.042,0.046h-0.1c-0.021,0-0.04-0.021-0.04-0.046
					c0.02-0.63,0.361-1.083,0.826-1.083c0.493-0.007,0.847,0.432,0.847,1.031C41.362,273.359,39.872,274.154,39.872,275.483z"/>
			</g>
			<g>
				<path fill="#0D93B2" d="M35.173,247.557v-2.767c0-0.558,0.376-1.003,0.847-1.003c0.471,0,0.847,0.445,0.847,1.003v2.767
					c0,0.564-0.376,1.01-0.847,1.01C35.549,248.566,35.173,248.121,35.173,247.557z M36.502,244.232
					c-0.124-0.146-0.291-0.239-0.482-0.239c-0.375,0-0.668,0.353-0.668,0.797v2.767c0,0.14,0.034,0.26,0.084,0.371L36.502,244.232z
					 M36.689,247.557v-2.767c0-0.133-0.036-0.26-0.085-0.364l-1.072,3.688c0.123,0.151,0.297,0.245,0.488,0.245
					C36.389,248.359,36.689,248.007,36.689,247.557z"/>
				<path fill="#0D93B2" d="M37.455,247.557v-2.767c0-0.558,0.375-1.003,0.844-1.003c0.471,0,0.849,0.445,0.849,1.003v2.767
					c0,0.564-0.377,1.01-0.849,1.01C37.831,248.566,37.455,248.121,37.455,247.557z M38.783,244.232
					c-0.123-0.146-0.291-0.239-0.484-0.239c-0.374,0-0.664,0.353-0.664,0.797v2.767c0,0.14,0.032,0.26,0.081,0.371L38.783,244.232z
					 M38.968,247.557v-2.767c0-0.133-0.034-0.26-0.084-0.364l-1.07,3.688c0.123,0.151,0.296,0.245,0.486,0.245
					C38.671,248.359,38.968,248.007,38.968,247.557z"/>
				<path fill="#0D93B2" d="M39.657,247.465c0-0.025,0.016-0.042,0.039-0.042h0.106c0.023,0,0.034,0.017,0.034,0.042
					c0.017,0.552,0.282,0.883,0.651,0.883c0.406,0,0.667-0.346,0.667-0.871v-0.777c0-0.468-0.297-0.82-0.69-0.82h-0.229
					c-0.016,0-0.027-0.013-0.027-0.031v-0.035c0-0.028,0.007-0.056,0.023-0.081l0.849-1.678H39.74c-0.021,0-0.031-0.019-0.031-0.04
					v-0.119c0-0.028,0.011-0.038,0.031-0.038h1.526c0.028,0,0.045,0.02,0.045,0.052v0.032c0,0.025-0.004,0.047-0.017,0.066
					l-0.845,1.688l0.073,0.003c0.475,0.021,0.812,0.46,0.812,1.001v0.777c0,0.638-0.342,1.076-0.847,1.076
					C40.023,248.553,39.673,248.126,39.657,247.465z"/>
			</g>
			<g>
				<path fill="#0D93B2" d="M35.173,220.369v-2.767c0-0.56,0.376-1,0.847-1c0.471,0,0.847,0.44,0.847,1v2.767
					c0,0.562-0.376,1.006-0.847,1.006C35.549,221.375,35.173,220.932,35.173,220.369z M36.502,217.043
					c-0.124-0.145-0.291-0.236-0.482-0.236c-0.375,0-0.668,0.352-0.668,0.796v2.767c0,0.137,0.034,0.26,0.084,0.37L36.502,217.043z
					 M36.689,220.369v-2.767c0-0.136-0.036-0.257-0.085-0.364l-1.072,3.687c0.123,0.155,0.297,0.247,0.488,0.247
					C36.389,221.172,36.689,220.819,36.689,220.369z"/>
				<path fill="#0D93B2" d="M37.455,220.369v-2.767c0-0.56,0.375-1,0.844-1c0.471,0,0.849,0.44,0.849,1v2.767
					c0,0.562-0.377,1.006-0.849,1.006C37.831,221.375,37.455,220.932,37.455,220.369z M38.783,217.043
					c-0.123-0.145-0.291-0.236-0.484-0.236c-0.374,0-0.664,0.352-0.664,0.796v2.767c0,0.137,0.032,0.26,0.081,0.37L38.783,217.043z
					 M38.968,220.369v-2.767c0-0.136-0.034-0.257-0.084-0.364l-1.07,3.687c0.123,0.155,0.296,0.247,0.486,0.247
					C38.671,221.172,38.968,220.819,38.968,220.369z"/>
				<path fill="#0D93B2" d="M41.481,219.667v0.118c0,0.024-0.017,0.048-0.041,0.048h-0.27v1.432c0,0.026-0.017,0.047-0.038,0.047
					h-0.105c-0.024,0-0.035-0.021-0.035-0.047v-1.432h-1.313c-0.049,0-0.085-0.042-0.085-0.096v-0.023c0-0.044,0-0.073,0.013-0.116
					l0.857-2.899c0.007-0.02,0.023-0.032,0.041-0.032h0.111c0.023,0,0.036,0.02,0.027,0.046l-0.855,2.912h1.206v-1.613
					c0-0.017,0.011-0.037,0.035-0.037h0.105c0.021,0,0.038,0.021,0.038,0.037v1.613h0.27
					C41.464,219.624,41.481,219.641,41.481,219.667z"/>
			</g>
			<g>
				<path fill="#0D93B2" d="M35.173,193.181v-2.769c0-0.556,0.376-1.001,0.847-1.001c0.471,0,0.847,0.445,0.847,1.001v2.769
					c0,0.564-0.376,1.008-0.847,1.008C35.549,194.188,35.173,193.745,35.173,193.181z M36.502,189.856
					c-0.124-0.146-0.291-0.24-0.482-0.24c-0.375,0-0.668,0.349-0.668,0.796v2.769c0,0.139,0.034,0.258,0.084,0.371L36.502,189.856z
					 M36.689,193.181v-2.769c0-0.131-0.036-0.258-0.085-0.365l-1.072,3.692c0.123,0.15,0.297,0.242,0.488,0.242
					C36.389,193.981,36.689,193.632,36.689,193.181z"/>
				<path fill="#0D93B2" d="M37.455,193.181v-2.769c0-0.556,0.375-1.001,0.844-1.001c0.471,0,0.849,0.445,0.849,1.001v2.769
					c0,0.564-0.377,1.008-0.849,1.008C37.831,194.188,37.455,193.745,37.455,193.181z M38.783,189.856
					c-0.123-0.146-0.291-0.24-0.484-0.24c-0.374,0-0.664,0.349-0.664,0.796v2.769c0,0.139,0.032,0.258,0.081,0.371L38.783,189.856z
					 M38.968,193.181v-2.769c0-0.131-0.034-0.258-0.084-0.365l-1.07,3.692c0.123,0.15,0.296,0.242,0.486,0.242
					C38.671,193.981,38.968,193.632,38.968,193.181z"/>
				<path fill="#0D93B2" d="M41.413,192.069v1.042c0,0.634-0.348,1.077-0.847,1.077c-0.471,0-0.836-0.425-0.853-1.103
					c0-0.026,0.016-0.037,0.04-0.037h0.106c0.021,0,0.034,0.011,0.034,0.037c0.01,0.564,0.297,0.896,0.672,0.896
					c0.404,0,0.669-0.35,0.669-0.87v-1.042c0-0.508-0.276-0.857-0.669-0.857c-0.341,0-0.621,0.318-0.645,0.694
					c0,0.042-0.023,0.071-0.062,0.071h-0.058c-0.038,0-0.062-0.024-0.062-0.079v-2.276c0-0.097,0.046-0.153,0.132-0.153h1.451
					c0.022,0,0.035,0.023,0.035,0.05v0.11c0,0.027-0.013,0.047-0.035,0.047h-1.402v1.763c0.133-0.262,0.37-0.436,0.656-0.436
					C41.061,191.003,41.413,191.447,41.413,192.069z"/>
			</g>
			<g>
				<path fill="#0D93B2" d="M35.173,165.991v-2.767c0-0.558,0.376-1.003,0.847-1.003c0.471,0,0.847,0.445,0.847,1.003v2.767
					c0,0.564-0.376,1.01-0.847,1.01C35.549,167.001,35.173,166.556,35.173,165.991z M36.502,162.667
					c-0.124-0.145-0.291-0.237-0.482-0.237c-0.375,0-0.668,0.35-0.668,0.795v2.767c0,0.14,0.034,0.261,0.084,0.371L36.502,162.667z
					 M36.689,165.991v-2.767c0-0.133-0.036-0.257-0.085-0.364l-1.072,3.688c0.123,0.152,0.297,0.246,0.488,0.246
					C36.389,166.795,36.689,166.443,36.689,165.991z"/>
				<path fill="#0D93B2" d="M37.455,165.991v-2.767c0-0.558,0.375-1.003,0.844-1.003c0.471,0,0.849,0.445,0.849,1.003v2.767
					c0,0.564-0.377,1.01-0.849,1.01C37.831,167.001,37.455,166.556,37.455,165.991z M38.783,162.667
					c-0.123-0.145-0.291-0.237-0.484-0.237c-0.374,0-0.664,0.35-0.664,0.795v2.767c0,0.14,0.032,0.261,0.081,0.371L38.783,162.667z
					 M38.968,165.991v-2.767c0-0.133-0.034-0.257-0.084-0.364l-1.07,3.688c0.123,0.152,0.296,0.246,0.486,0.246
					C38.671,166.795,38.968,166.443,38.968,165.991z"/>
				<path fill="#0D93B2" d="M39.736,165.979v-2.646c0-0.659,0.359-1.096,0.841-1.096c0.467,0,0.836,0.423,0.853,1.038
					c0,0.029-0.017,0.048-0.04,0.048h-0.106c-0.021,0-0.031-0.019-0.031-0.048c-0.017-0.509-0.305-0.838-0.675-0.838
					c-0.38,0-0.662,0.349-0.662,0.896v1.013c0.13-0.279,0.372-0.464,0.675-0.464c0.458,0,0.84,0.444,0.84,1.001v1.096
					c0,0.564-0.382,1.009-0.847,1.009C40.112,166.987,39.736,166.543,39.736,165.979z M41.252,165.979v-1.09
					c0-0.457-0.3-0.809-0.669-0.809c-0.369,0-0.668,0.352-0.668,0.809v1.09c0,0.457,0.3,0.809,0.668,0.809
					C40.952,166.787,41.252,166.436,41.252,165.979z"/>
			</g>
			<g>
				<path fill="#0D93B2" d="M35.173,138.806v-2.769c0-0.559,0.376-1.003,0.847-1.003c0.471,0,0.847,0.444,0.847,1.003v2.769
					c0,0.562-0.376,1.004-0.847,1.004C35.549,139.81,35.173,139.368,35.173,138.806z M36.502,135.479
					c-0.124-0.146-0.291-0.237-0.482-0.237c-0.375,0-0.668,0.35-0.668,0.796v2.769c0,0.137,0.034,0.257,0.084,0.368L36.502,135.479z
					 M36.689,138.806v-2.769c0-0.134-0.036-0.26-0.085-0.365l-1.072,3.689c0.123,0.153,0.297,0.245,0.488,0.245
					C36.389,139.606,36.689,139.254,36.689,138.806z"/>
				<path fill="#0D93B2" d="M37.455,138.806v-2.769c0-0.559,0.375-1.003,0.844-1.003c0.471,0,0.849,0.444,0.849,1.003v2.769
					c0,0.562-0.377,1.004-0.849,1.004C37.831,139.81,37.455,139.368,37.455,138.806z M38.783,135.479
					c-0.123-0.146-0.291-0.237-0.484-0.237c-0.374,0-0.664,0.35-0.664,0.796v2.769c0,0.137,0.032,0.257,0.081,0.368L38.783,135.479z
					 M38.968,138.806v-2.769c0-0.134-0.034-0.26-0.084-0.365l-1.07,3.689c0.123,0.153,0.296,0.245,0.486,0.245
					C38.671,139.606,38.968,139.254,38.968,138.806z"/>
				<path fill="#0D93B2" d="M39.617,135.101h1.462c0.041,0,0.063,0.02,0.063,0.073c0,0.047,0,0.072-0.011,0.12l-0.925,4.413
					c-0.006,0.025-0.017,0.036-0.04,0.036h-0.113c-0.023,0-0.038-0.016-0.031-0.044l0.924-4.399h-1.33
					c-0.023,0-0.034-0.019-0.034-0.04v-0.12C39.583,135.12,39.594,135.101,39.617,135.101z"/>
			</g>
			<g>
				<path fill="#0D93B2" d="M35.173,111.614v-2.766c0-0.558,0.376-1.003,0.847-1.003c0.471,0,0.847,0.445,0.847,1.003v2.766
					c0,0.565-0.376,1.011-0.847,1.011C35.549,112.625,35.173,112.18,35.173,111.614z M36.502,108.291
					c-0.124-0.146-0.291-0.238-0.482-0.238c-0.375,0-0.668,0.352-0.668,0.796v2.766c0,0.139,0.034,0.259,0.084,0.375L36.502,108.291
					z M36.689,111.614v-2.766c0-0.135-0.036-0.26-0.085-0.365l-1.072,3.688c0.123,0.152,0.297,0.246,0.488,0.246
					C36.389,112.418,36.689,112.066,36.689,111.614z"/>
				<path fill="#0D93B2" d="M37.455,111.614v-2.766c0-0.558,0.375-1.003,0.844-1.003c0.471,0,0.849,0.445,0.849,1.003v2.766
					c0,0.565-0.377,1.011-0.849,1.011C37.831,112.625,37.455,112.18,37.455,111.614z M38.783,108.291
					c-0.123-0.146-0.291-0.238-0.484-0.238c-0.374,0-0.664,0.352-0.664,0.796v2.766c0,0.139,0.032,0.259,0.081,0.375L38.783,108.291
					z M38.968,111.614v-2.766c0-0.135-0.034-0.26-0.084-0.365l-1.07,3.688c0.123,0.152,0.296,0.246,0.486,0.246
					C38.671,112.418,38.968,112.066,38.968,111.614z"/>
				<path fill="#0D93B2" d="M41.44,111.084v0.512c0,0.569-0.348,1.014-0.871,1.014c-0.516,0-0.861-0.444-0.861-1.014v-0.512
					c0-0.431,0.206-0.77,0.516-0.916c-0.27-0.159-0.454-0.51-0.454-0.909v-0.426c0-0.527,0.313-0.975,0.799-0.975
					c0.495,0,0.803,0.447,0.803,0.975v0.426c0,0.399-0.18,0.75-0.448,0.909C41.235,110.314,41.44,110.653,41.44,111.084z
					 M41.262,111.079c0-0.458-0.31-0.812-0.692-0.812c-0.373,0-0.683,0.354-0.683,0.812v0.517c0,0.458,0.263,0.816,0.683,0.816
					c0.422,0,0.692-0.358,0.692-0.816V111.079z M40.57,110.069c0.351,0,0.623-0.359,0.623-0.811v-0.426
					c0-0.418-0.228-0.775-0.623-0.775c-0.393,0-0.621,0.357-0.621,0.775v0.426C39.949,109.71,40.225,110.069,40.57,110.069z"/>
			</g>
			<g>
				<path fill="#0D93B2" d="M35.173,84.426v-2.767c0-0.556,0.376-1.003,0.847-1.003c0.471,0,0.847,0.447,0.847,1.003v2.767
					c0,0.564-0.376,1.009-0.847,1.009C35.549,85.435,35.173,84.99,35.173,84.426z M36.502,81.104
					c-0.124-0.147-0.291-0.239-0.482-0.239c-0.375,0-0.668,0.35-0.668,0.795v2.767c0,0.14,0.034,0.26,0.084,0.371L36.502,81.104z
					 M36.689,84.426v-2.767c0-0.133-0.036-0.257-0.085-0.362l-1.072,3.687c0.123,0.152,0.297,0.246,0.488,0.246
					C36.389,85.229,36.689,84.878,36.689,84.426z"/>
				<path fill="#0D93B2" d="M37.455,84.426v-2.767c0-0.556,0.375-1.003,0.844-1.003c0.471,0,0.849,0.447,0.849,1.003v2.767
					c0,0.564-0.377,1.009-0.849,1.009C37.831,85.435,37.455,84.99,37.455,84.426z M38.783,81.104
					c-0.123-0.147-0.291-0.239-0.484-0.239c-0.374,0-0.664,0.35-0.664,0.795v2.767c0,0.14,0.032,0.26,0.081,0.371L38.783,81.104z
					 M38.968,84.426v-2.767c0-0.133-0.034-0.257-0.084-0.362l-1.07,3.687c0.123,0.152,0.296,0.246,0.486,0.246
					C38.671,85.229,38.968,84.878,38.968,84.426z"/>
				<path fill="#0D93B2" d="M41.471,81.679v2.647c0,0.657-0.359,1.096-0.843,1.096c-0.464,0-0.836-0.426-0.853-1.042
					c0-0.027,0.017-0.047,0.038-0.047h0.108c0.024,0,0.034,0.02,0.034,0.047c0.017,0.509,0.302,0.843,0.673,0.843
					c0.38,0,0.663-0.352,0.663-0.896v-1.015c-0.13,0.278-0.369,0.465-0.675,0.465c-0.458,0-0.841-0.444-0.841-1.003v-1.095
					c0-0.562,0.382-1.007,0.847-1.007C41.092,80.672,41.471,81.116,41.471,81.679z M39.955,81.679v1.089
					c0,0.457,0.298,0.81,0.667,0.81c0.371,0,0.668-0.353,0.668-0.81v-1.089c0-0.455-0.298-0.809-0.668-0.809
					C40.252,80.87,39.955,81.224,39.955,81.679z"/>
			</g>
			<g>
				<path fill="#0D93B2" d="M35.173,57.238v-2.767c0-0.559,0.376-1.004,0.847-1.004c0.471,0,0.847,0.445,0.847,1.004v2.767
					c0,0.563-0.376,1.007-0.847,1.007C35.549,58.245,35.173,57.802,35.173,57.238z M36.502,53.913
					c-0.124-0.146-0.291-0.238-0.482-0.238c-0.375,0-0.668,0.353-0.668,0.797v2.767c0,0.139,0.034,0.259,0.084,0.37L36.502,53.913z
					 M36.689,57.238v-2.767c0-0.132-0.036-0.26-0.085-0.364l-1.072,3.688c0.123,0.152,0.297,0.245,0.488,0.245
					C36.389,58.041,36.689,57.689,36.689,57.238z"/>
				<path fill="#0D93B2" d="M38.106,53.729v4.404c0,0.028-0.019,0.047-0.04,0.047H37.96c-0.024,0-0.035-0.019-0.035-0.047V53.74
					h-0.588c-0.023,0-0.036-0.02-0.036-0.045v-0.121c0-0.018,0.013-0.038,0.036-0.038h0.603
					C38.043,53.536,38.106,53.602,38.106,53.729z"/>
				<path fill="#0D93B2" d="M38.838,57.238v-2.767c0-0.559,0.376-1.004,0.847-1.004c0.472,0,0.847,0.445,0.847,1.004v2.767
					c0,0.563-0.375,1.007-0.847,1.007C39.214,58.245,38.838,57.802,38.838,57.238z M40.167,53.913
					c-0.123-0.146-0.292-0.238-0.482-0.238c-0.375,0-0.667,0.353-0.667,0.797v2.767c0,0.139,0.034,0.259,0.083,0.37L40.167,53.913z
					 M40.354,57.238v-2.767c0-0.132-0.034-0.26-0.085-0.364l-1.072,3.688c0.124,0.152,0.297,0.245,0.488,0.245
					C40.054,58.041,40.354,57.689,40.354,57.238z"/>
			</g>
		</g>
	</g>
	<linearGradient id="SVGID_2_" gradientUnits="userSpaceOnUse" x1="20.8159" y1="365.793" x2="108.3901" y2="365.793">
		<stop  offset="0" style="stop-color:#0094A9"/>
		<stop  offset="0.9737" style="stop-color:#9600A9"/>
	</linearGradient>
	<polygon fill="url(#SVGID_2_)" points="20.816,368.189 26.801,363.396 102.407,363.396 108.39,368.189 	"/>
	<linearGradient id="SVGID_3_" gradientUnits="userSpaceOnUse" x1="89.812" y1="364.1953" x2="238.0254" y2="364.1953">
		<stop  offset="0" style="stop-color:#0094A9"/>
		<stop  offset="0.9737" style="stop-color:#9600A9"/>
	</linearGradient>
	<polygon fill="url(#SVGID_3_)" points="89.812,368.248 99.939,360.143 227.906,360.143 238.025,368.248 	"/>
	<linearGradient id="SVGID_4_" gradientUnits="userSpaceOnUse" x1="161.5918" y1="-17.5723" x2="185.6011" y2="24.013">
		<stop  offset="0" style="stop-color:#0094A9"/>
		<stop  offset="0.9737" style="stop-color:#9600A9"/>
	</linearGradient>
	<polygon fill="url(#SVGID_4_)" points="216.59,1.479 210.579,9.592 134.601,9.592 128.592,1.479 	"/>
	<linearGradient id="SVGID_5_" gradientUnits="userSpaceOnUse" x1="244.6523" y1="364.1953" x2="339.9668" y2="364.1953">
		<stop  offset="0" style="stop-color:#0094A9"/>
		<stop  offset="0.9737" style="stop-color:#9600A9"/>
	</linearGradient>
	<polygon fill="url(#SVGID_5_)" points="244.652,368.248 251.166,360.143 333.461,360.143 339.967,368.248 	"/>
	<linearGradient id="SVGID_6_" gradientUnits="userSpaceOnUse" x1="356.5547" y1="348.6953" x2="441.8887" y2="348.6953">
		<stop  offset="0" style="stop-color:#0094A9"/>
		<stop  offset="0.9737" style="stop-color:#9600A9"/>
	</linearGradient>
	<polygon fill="url(#SVGID_6_)" points="441.889,332.563 433.842,329.142 402.84,360.143 363.066,360.143 356.555,368.248 
		406.682,368.248 406.545,367.908 	"/>
	<linearGradient id="SVGID_7_" gradientUnits="userSpaceOnUse" x1="326.5186" y1="31.9912" x2="225.7365" y2="-26.1953">
		<stop  offset="0" style="stop-color:#0094A9"/>
		<stop  offset="0.9737" style="stop-color:#9600A9"/>
	</linearGradient>
	<polygon fill="url(#SVGID_7_)" points="209.663,1.646 220.385,12.367 332.949,12.367 342.775,2.541 344.555,0.752 	"/>
	<linearGradient id="SVGID_8_" gradientUnits="userSpaceOnUse" x1="452.4658" y1="86.3145" x2="393.9019" y2="-15.1213">
		<stop  offset="0" style="stop-color:#0094A9"/>
		<stop  offset="0.9737" style="stop-color:#9600A9"/>
	</linearGradient>
	<polygon fill="url(#SVGID_8_)" points="365.15,1.479 365.15,10.432 383.221,10.432 387.736,5.916 398.699,5.916 406.443,13.659 
		422.582,13.659 429.355,6.885 436.766,6.885 436.766,14.303 436.766,23.982 430.643,30.111 430.643,43.981 439.191,52.531 
		439.191,65.919 439.191,80.112 444.506,80.112 444.506,87.209 446.447,89.789 446.883,1.292 	"/>
	<linearGradient id="SVGID_9_" gradientUnits="userSpaceOnUse" x1="14.1118" y1="51.7241" x2="3.441" y2="41.0533">
		<stop  offset="0" style="stop-color:#0094A9"/>
		<stop  offset="0.9737" style="stop-color:#9600A9"/>
	</linearGradient>
	<polygon fill="url(#SVGID_9_)" points="16.604,28.665 16.604,40.198 8.431,48.368 8.431,57.403 1.335,64.499 1.118,43.376 	"/>
</g>
</svg>
